<svg width="235" height="67" viewBox="0 0 235 67" fill="none" xmlns="http://www.w3.org/2000/svg">
<path d="M41.2808 38.8818L51.1241 58.8603L60.9271 38.8899L57.4743 38.898L51.1241 52.0577L44.806 38.8737L41.2808 38.8818Z" fill="#081C39"/>
<path d="M31.2924 41.5704C32.2582 41.5704 33.1838 41.7566 34.045 42.1292C34.9142 42.5017 35.6708 43.0119 36.3066 43.6517C36.9424 44.2914 37.4495 45.0527 37.8197 45.9273C38.1899 46.7938 38.3751 47.717 38.3751 48.6888C38.3751 49.6606 38.1899 50.5919 37.8197 51.4584C37.4495 52.3331 36.9424 53.0943 36.3066 53.7341C35.6708 54.3738 34.9061 54.884 34.045 55.2566C33.1838 55.6291 32.2582 55.8154 31.2924 55.8154C30.3266 55.8154 29.401 55.6291 28.5398 55.2566C27.6706 54.884 26.914 54.3657 26.2782 53.7341C25.6423 53.0943 25.1353 52.3331 24.765 51.4584C24.3948 50.5919 24.2097 49.6606 24.2097 48.6888C24.2097 47.717 24.3948 46.7857 24.765 45.9192C25.1353 45.0446 25.6504 44.2752 26.2782 43.6436C26.914 43.0038 27.6786 42.4936 28.5398 42.1211C29.3929 41.7485 30.3185 41.5623 31.2924 41.5623M40.5884 44.7449C40.0572 43.514 39.3328 42.4288 38.4314 41.5137C37.53 40.6067 36.4434 39.8697 35.22 39.3433C33.9886 38.8089 32.6606 38.5335 31.2843 38.5335C29.908 38.5335 28.58 38.8008 27.3486 39.3433C26.1333 39.8697 25.0467 40.6067 24.1373 41.5137C23.2358 42.4207 22.5034 43.514 21.9803 44.7449C21.4491 45.9921 21.1754 47.3202 21.1754 48.705C21.1754 50.0898 21.4491 51.418 21.9803 52.6651C22.5034 53.896 23.2278 54.9812 24.1373 55.8963C25.0467 56.8033 26.1252 57.5403 27.3486 58.0667C28.58 58.6012 29.908 58.8765 31.2843 58.8765C32.6606 58.8765 33.9806 58.6012 35.212 58.0667C36.4354 57.5322 37.5139 56.8033 38.4233 55.8963C39.3328 54.9812 40.0572 53.896 40.5803 52.6651C41.1115 51.418 41.3852 50.0898 41.3852 48.705C41.3852 47.3202 41.1115 45.9921 40.5803 44.7449" fill="#081C39"/>
<path d="M71.9856 58.8927C67.1324 58.8927 63.4703 55.208 63.4703 50.3166V38.987H66.4483V50.3166C66.4483 53.4749 68.7743 55.7586 71.9856 55.7586C75.197 55.7586 77.523 53.4668 77.523 50.3166V38.987H80.5009V50.3166C80.5009 55.208 76.8389 58.8927 71.9856 58.8927Z" fill="#081C39"/>
<path d="M98.5861 50.1303C97.902 49.4258 97.0569 48.8832 96.075 48.5188C95.1735 48.1786 93.9824 47.8385 92.5336 47.4984C89.9984 46.8991 86.8111 46.559 86.8111 44.0566C86.8111 43.3439 87.278 42.777 88.0104 42.2669C88.8072 41.7081 90.1432 41.4489 91.3988 41.4489C95.7852 41.5137 96.5337 43.7974 96.5981 44.7935L96.6464 45.2632H99.6002L99.5841 44.7045C99.4634 42.6718 98.8356 41.4165 97.1454 40.1937C95.6806 39.1328 93.765 38.5902 91.4471 38.5902C90.0305 38.5902 88.7347 38.8251 87.5919 39.3029C86.4329 39.7807 85.5073 40.4528 84.8473 41.287C84.1712 42.1454 83.8252 43.0929 83.8252 44.1052C83.8252 45.4576 84.2195 46.559 85.0083 47.3931C85.7487 48.1786 86.6502 48.7779 87.7045 49.1747C88.6543 49.5311 89.9179 49.9036 91.4551 50.268C92.6624 50.5514 93.6282 50.8106 94.3204 51.0454C94.916 51.2479 96.6303 51.7986 96.5981 53.1591C96.5981 53.9528 96.252 54.6087 95.5357 55.1594C94.7792 55.7425 93.4592 55.9935 92.1232 55.9935C87.3021 55.9692 86.5697 53.807 86.4731 52.8514L86.4007 52.1387H83.1813L83.2698 53.0052C83.471 54.8922 84.4046 56.3742 86.0626 57.4026C87.6401 58.3825 89.6845 58.8846 92.1232 58.8846C93.5155 58.8846 94.8033 58.6417 95.9381 58.172C97.1052 57.6861 98.0307 56.9977 98.6988 56.1231C99.3748 55.2323 99.7129 54.2281 99.7129 53.1348C99.7129 51.912 99.3346 50.9159 98.5941 50.1546" fill="#081C39"/>
<path d="M9.03041 38.5254C6.73659 38.5254 4.66813 39.319 3.09062 40.6472C2.96989 39.4567 1.97188 38.5254 0.756559 38.5254H0V47.2716C0 47.2716 0 47.2959 0 47.3121V58.2853H3.11477V47.3121C3.11477 44.0889 5.65809 41.6594 9.03041 41.6594C12.4027 41.6594 14.9461 44.0889 14.9461 47.3121V58.2853H18.0608V47.3121C18.0608 42.3883 14.0929 38.5254 9.03041 38.5254Z" fill="#081C39"/>
<path d="M63.4864 0.770977H77.2333V9.44429C76.6779 9.31472 65.5951 7.16866 63.4703 16.7085C63.4864 13.542 63.4864 0.762878 63.4864 0.762878" fill="#081C39"/>
<path d="M85.0404 9.47668V0.78717H98.6585V16.7571C98.6585 16.255 97.2419 7.71934 85.0404 9.47668Z" fill="#081C39"/>
<path d="M77.5876 9.5091V0.770996H84.7025V9.88162C84.944 9.88162 90.3767 8.25386 95.2219 11.5661C95.7209 11.9386 98.6828 14.3357 98.6345 19.0246C98.5862 22.5474 98.6345 32.5731 98.6345 32.5731H91.3103V20.8225C91.3103 20.539 91.5759 16.1578 88.0265 16.1578C87.1171 16.1578 85.5637 16.4656 84.9762 18.5954C84.9762 17.818 85.1371 11.3555 77.5876 9.5091Z" fill="#B1953A"/>
<path d="M84.6782 26.5803H77.3943V29.3823H84.6782V26.5803Z" fill="#C9B06D"/>
<path d="M84.6782 30.006H77.3943V32.557H84.6782V30.006Z" fill="#B1953A"/>
<path d="M70.7703 21.2598C70.7784 21.7376 70.7703 32.565 70.7703 32.565H63.5025V19.794C63.5025 19.1542 63.253 9.4848 74.3519 9.4848C74.9073 9.4848 84.6862 9.05558 84.6862 19.4538V25.9649H77.3942V20.952C77.3942 20.2961 77.5552 16.174 74.1265 16.174C70.6979 16.174 70.7542 20.2799 70.7784 21.2598" fill="#D8C490"/>
<path d="M106.361 47.9681V40.0074C106.361 39.1571 105.677 38.4606 104.824 38.4606H104.333V52.989C104.333 53.1024 104.333 53.2158 104.333 53.3292V65.1689H106.361V53.5802V53.2401" fill="#B1953A"/>
<path d="M183.377 47.7008H169.091C169.163 46.154 169.526 44.8259 170.177 43.7407C170.854 42.607 171.747 41.7485 172.817 41.1897C173.896 40.631 175.095 40.3475 176.367 40.3475C177.638 40.3475 178.838 40.631 179.932 41.1897C181.019 41.7404 181.888 42.5989 182.516 43.7326C183.119 44.8178 183.409 46.1459 183.377 47.6927M185.349 49.28C185.397 48.8508 185.421 48.1948 185.421 47.3364C185.421 45.7896 185.059 44.3238 184.351 42.9795C183.635 41.6352 182.588 40.5419 181.228 39.7239C179.868 38.9141 178.242 38.5011 176.407 38.5011C174.572 38.5011 172.954 38.9141 171.538 39.7239C170.113 40.5338 168.994 41.7242 168.198 43.2467C167.409 44.7692 167.006 46.567 167.006 48.6078C167.006 50.6486 167.409 52.4626 168.214 53.9932C169.018 55.5319 170.145 56.7304 171.57 57.5484C172.986 58.3744 174.62 58.7874 176.407 58.7874C178.789 58.7874 180.785 58.1558 182.355 56.9086C183.675 55.8558 184.584 54.5034 185.059 52.8999H182.894C182.5 53.977 181.832 54.8678 180.914 55.5562C179.715 56.4551 178.202 56.9086 176.407 56.9086C175.111 56.9086 173.896 56.6171 172.809 56.0502C171.723 55.4833 170.837 54.6168 170.169 53.483C169.534 52.3978 169.171 51.0535 169.099 49.4905H185.333L185.357 49.2719L185.349 49.28Z" fill="#B1953A"/>
<path d="M206.315 45.5952C206.146 44.6882 205.857 43.8055 205.422 42.9795C204.714 41.6352 203.659 40.5419 202.299 39.7239C200.939 38.9141 199.313 38.5011 197.478 38.5011C195.643 38.5011 194.025 38.9141 192.609 39.7239C191.184 40.5338 190.065 41.7242 189.269 43.2467C188.48 44.7692 188.077 46.567 188.077 48.6078C188.077 50.6486 188.488 52.4626 189.285 53.9932C190.09 55.5319 191.216 56.7304 192.641 57.5484C194.057 58.3744 195.691 58.7874 197.478 58.7874C199.86 58.7874 201.856 58.1558 203.426 56.9086C204.746 55.8558 205.655 54.5115 206.13 52.8999H203.965C203.571 53.977 202.903 54.8678 201.985 55.5562C200.786 56.4551 199.273 56.9086 197.486 56.9086C196.19 56.9086 194.983 56.6171 193.888 56.0502C192.802 55.4833 191.908 54.6168 191.249 53.483C190.613 52.3978 190.202 50.6567 190.178 49.4905C190.154 48.3163 190.138 49.0289 190.178 47.6846C190.218 46.3403 190.613 44.8097 191.265 43.7326C191.941 42.5989 192.834 41.7404 193.905 41.1816C194.983 40.6229 196.182 40.3394 197.454 40.3394C198.726 40.3394 199.925 40.6229 201.019 41.1816C202.106 41.7323 202.975 42.5908 203.603 43.7245C203.909 44.2833 204.134 44.9069 204.279 45.5871H206.331L206.315 45.5952Z" fill="#B1953A"/>
<path d="M122.643 48.7293C122.643 49.8469 122.426 50.9239 121.999 51.92C121.573 52.9161 120.993 53.7988 120.261 54.5358C119.528 55.2727 118.659 55.8639 117.661 56.285C116.671 56.7143 115.609 56.9248 114.498 56.9248C113.387 56.9248 112.317 56.7062 111.327 56.285C110.329 55.8558 109.46 55.2646 108.727 54.5277C107.995 53.7907 107.415 52.9161 106.989 51.9119C106.57 50.9158 106.353 49.8469 106.353 48.7212C106.353 47.5955 106.57 46.5265 106.989 45.5385C107.415 44.5344 108.003 43.6516 108.727 42.9228C109.46 42.1858 110.329 41.5947 111.327 41.1735C112.317 40.7443 113.379 40.5257 114.498 40.5257C115.617 40.5257 116.679 40.7443 117.661 41.1735C118.659 41.6028 119.528 42.1939 120.261 42.9228C120.993 43.6516 121.573 44.5344 121.999 45.5385C122.426 46.5346 122.643 47.6036 122.643 48.7212M123.859 44.753C123.327 43.5059 122.595 42.4126 121.685 41.4975C120.776 40.5824 119.689 39.8454 118.45 39.3109C117.21 38.7764 115.882 38.5011 114.498 38.5011C113.114 38.5011 111.778 38.7764 110.546 39.3109C109.315 39.8454 108.228 40.5824 107.311 41.4975C106.401 42.4126 105.669 43.5059 105.138 44.753C104.598 46.0002 104.333 47.3445 104.333 48.7293C104.333 50.1141 104.607 51.4584 105.138 52.7056C105.669 53.9446 106.393 55.0379 107.311 55.9611C108.228 56.8762 109.315 57.6132 110.546 58.1477C111.786 58.6821 113.114 58.9575 114.498 58.9575C115.882 58.9575 117.21 58.6821 118.45 58.1477C119.681 57.6132 120.776 56.8762 121.685 55.9611C122.595 55.0379 123.327 53.9446 123.859 52.7056C124.39 51.4584 124.663 50.1222 124.663 48.7293C124.663 47.3364 124.39 46.0002 123.859 44.753Z" fill="#B1953A"/>
<path d="M155.972 48.7293C155.972 49.8469 155.754 50.9239 155.328 51.92C154.901 52.9161 154.322 53.7988 153.589 54.5358C152.857 55.2727 151.98 55.8639 150.99 56.285C150 56.7143 148.937 56.9248 147.827 56.9248C146.716 56.9248 145.645 56.7062 144.656 56.285C143.658 55.8558 142.788 55.2646 142.056 54.5277C141.323 53.7907 140.744 52.9161 140.317 51.9119C139.891 50.9158 139.682 49.8469 139.682 48.7212C139.682 47.5955 139.899 46.5265 140.317 45.5385C140.744 44.5344 141.331 43.6516 142.056 42.9228C142.788 42.1858 143.658 41.5947 144.656 41.1735C145.645 40.7443 146.708 40.5257 147.827 40.5257C148.945 40.5257 150.008 40.7443 150.99 41.1735C151.988 41.6028 152.857 42.1939 153.589 42.9228C154.322 43.6516 154.901 44.5344 155.328 45.5385C155.754 46.5346 155.972 47.6036 155.972 48.7212M157.187 44.753C156.656 43.5059 155.923 42.4126 155.014 41.4975C154.104 40.5824 153.018 39.8454 151.778 39.3109C150.539 38.7764 149.211 38.5011 147.827 38.5011C146.442 38.5011 145.106 38.7764 143.875 39.3109C142.643 39.8454 141.557 40.5824 140.639 41.4975C139.73 42.4126 138.997 43.5059 138.466 44.753C137.927 46.0002 137.661 47.3445 137.661 48.7293C137.661 50.1141 137.935 51.4584 138.466 52.7056C138.997 53.9446 139.722 55.0379 140.639 55.9611C141.557 56.8762 142.643 57.6132 143.875 58.1477C145.114 58.6821 146.442 58.9575 147.827 58.9575C149.211 58.9575 150.539 58.6821 151.778 58.1477C153.01 57.6132 154.104 56.8762 155.014 55.9611C155.923 55.0379 156.656 53.9446 157.187 52.7056C157.718 51.4584 157.992 50.1222 157.992 48.7293C157.992 47.3364 157.718 46.0002 157.187 44.753Z" fill="#B1953A"/>
<path d="M232.609 44.7287H234.903L234.887 44.4453C234.782 42.5988 234.026 41.1249 232.65 40.0722C231.281 39.0275 229.47 38.493 227.273 38.493C225.929 38.493 224.706 38.7278 223.635 39.1975C222.565 39.6672 221.712 40.3151 221.1 41.1249C220.488 41.9348 220.183 42.8337 220.183 43.7893C220.183 45.085 220.537 46.1297 221.229 46.9152C221.913 47.6846 222.75 48.2677 223.716 48.6483C224.649 49.0208 225.897 49.4014 227.418 49.7821C228.658 50.0898 229.648 50.3732 230.364 50.6243C231.048 50.8672 231.627 51.2236 232.086 51.6771C232.529 52.1144 232.786 52.7379 232.786 53.4263C232.843 55.8234 229.422 56.9653 227.949 56.9653C226.138 56.9653 224.69 56.6089 223.659 55.9125C222.629 55.216 222.066 54.3009 221.953 53.1186L221.937 52.9809H219.603L219.619 53.1672C219.804 54.9974 220.665 56.4308 222.179 57.4188C223.668 58.3987 225.615 58.8927 227.957 58.8927C229.277 58.8927 230.485 58.6578 231.555 58.1881C232.634 57.7184 233.479 57.0544 234.09 56.204C234.702 55.3537 235.008 54.3981 235.008 53.3534C235.008 52.2035 234.678 51.2641 234.034 50.5595C233.406 49.8792 232.625 49.3528 231.716 48.9884C230.839 48.6402 229.664 48.2839 228.223 47.9275C226.927 47.6036 225.881 47.2878 225.108 46.9962C224.36 46.7209 222.492 46.1945 222.42 43.7731C222.42 42.8256 222.919 42.0562 223.804 41.3922C224.698 40.7281 225.857 40.388 227.241 40.388C228.891 40.388 230.195 40.7686 231.12 41.5299C232.046 42.2911 232.537 43.2548 232.609 44.4776L232.625 44.7368L232.609 44.7287Z" fill="#B1953A"/>
<path d="M138.547 40.2018V39.8535C138.547 39.8535 138.491 39.8211 138.466 39.7969C138.08 39.5215 137.67 39.2948 137.227 39.1004C136.317 38.7036 135.295 38.4849 134.177 38.4849C132.028 38.4849 130.201 39.2786 128.913 40.631V40.0641C128.913 39.2057 128.221 38.5092 127.376 38.5092H126.885V46.0245C126.885 46.0731 126.885 46.1217 126.885 46.1783V58.2934H128.929V46.1783C128.929 42.7527 130.989 40.5338 134.185 40.5338C135.215 40.5338 136.124 40.7687 136.889 41.1898C137.002 41.2465 137.138 41.2869 137.275 41.3031C137.324 41.3031 137.372 41.3193 137.42 41.3193C138.048 41.3193 138.555 40.8172 138.555 40.1937L138.547 40.2018Z" fill="#B1953A"/>
<path d="M213.003 46.7047V41.0116H218.903V40.5176C218.903 39.6673 218.219 38.9708 217.374 38.9708H213.011V33.1319C213.011 32.2816 212.327 31.5851 211.474 31.5851H210.983V38.9708H206.476V41.0116H210.983V46.1136C210.983 46.2269 210.975 46.3403 210.975 46.4537V51.0211L210.991 51.0616C211.184 54.4305 213.003 56.1231 213.003 56.1231C214.291 57.4836 216.118 58.2692 218.267 58.2692V56.2122C215.072 56.2122 213.011 53.9932 213.011 50.5676V46.7047H213.003Z" fill="#B1953A"/>
<path d="M163.489 38.9708H161.461V58.8765C161.421 62.3183 158.813 64.7154 155.095 64.7154C153.437 64.7154 151.835 64.0514 151.706 64.0028C151.489 64.2052 150.99 64.6101 150.99 65.177C150.99 65.5981 151.239 65.9545 151.602 66.1164C151.61 66.1164 151.626 66.1245 151.634 66.1326C152.672 66.5456 153.839 66.7643 155.095 66.7643C157.718 66.7643 160.173 65.6791 161.461 64.1647C162.91 62.537 163.554 61.2089 163.489 57.354C163.489 56.2527 163.497 38.987 163.497 38.987" fill="#B1953A"/>
</svg>
