<svg xmlns="http://www.w3.org/2000/svg" xmlns:xlink="http://www.w3.org/1999/xlink" width="1800" viewBox="0 0 1350 749.999995" height="1000" preserveAspectRatio="xMidYMid meet"><defs><g></g></defs><path fill="#000000" d="M 497.300781 124.035156 L 497.300781 259.019531 C 497.300781 270.066406 503.21875 275.890625 514.476562 275.890625 C 522.359375 275.890625 530.21875 275.753906 538.078125 275.960938 C 540.992188 275.960938 541.683594 275.152344 541.660156 272.378906 C 541.570312 233.847656 541.570312 195.339844 541.660156 156.808594 L 541.660156 126.601562 C 541.660156 124.289062 542.308594 123.574219 544.644531 123.574219 C 559.714844 123.664062 574.785156 123.664062 589.878906 123.574219 C 591.984375 123.574219 592.792969 124.035156 592.792969 126.324219 C 592.722656 192.105469 592.722656 257.886719 592.792969 323.691406 C 592.792969 324.40625 592.722656 325.125 592.652344 326.234375 L 589.300781 326.234375 C 564.199219 326.234375 539.117188 325.957031 514.015625 326.234375 C 499.199219 326.347656 485.652344 322.835938 473.792969 314.007812 C 455.949219 300.691406 446.449219 283.105469 446.425781 260.777344 L 446.425781 124.035156 Z M 497.300781 124.035156 " fill-opacity="1" fill-rule="nonzero"></path><path fill="#000000" d="M 761.234375 326.164062 L 710.382812 326.164062 C 710.382812 324.847656 710.195312 323.597656 710.195312 322.351562 L 710.195312 190.417969 C 710.195312 182.398438 706.265625 176.710938 699.449219 174.769531 C 698.269531 174.445312 697.066406 174.285156 695.863281 174.285156 L 667.78125 174.285156 C 667.203125 174.332031 666.625 174.398438 666.046875 174.492188 L 666.046875 326.117188 L 615.078125 326.117188 L 615.078125 123.6875 L 618.613281 123.6875 C 643.324219 123.78125 668.058594 124.011719 692.765625 123.851562 C 702.660156 123.851562 712.300781 124.613281 721.222656 128.84375 C 747.320312 141.183594 761.121094 161.527344 761.234375 190.300781 C 761.375 217.738281 761.234375 245.195312 761.234375 272.632812 Z M 761.234375 326.164062 " fill-opacity="1" fill-rule="nonzero"></path><path fill="#010101" d="M 982.472656 584.089844 L 982.472656 533.679688 L 986.058594 533.679688 C 1008.523438 533.679688 1030.992188 533.679688 1053.460938 533.609375 C 1056.535156 533.609375 1059.5625 533.007812 1062.382812 531.785156 C 1068.394531 528.800781 1071.515625 522.121094 1069.875 515.675781 C 1068.210938 509.292969 1062.5 504.742188 1055.820312 504.511719 C 1052.097656 504.371094 1048.332031 504.511719 1044.585938 504.511719 L 982.429688 504.511719 L 982.429688 453.984375 L 1058.523438 453.984375 C 1066.128906 453.984375 1071.121094 448.390625 1070.082031 441.203125 C 1069.296875 436.394531 1065.320312 432.71875 1060.417969 432.234375 C 1059.308594 432.140625 1058.152344 432.164062 1057.042969 432.164062 L 982.496094 432.164062 L 982.496094 381.5 L 1062.316406 381.5 C 1089.265625 381.5 1109.886719 395.875 1117.953125 421.300781 C 1124.332031 441.269531 1122.554688 460.710938 1111.203125 478.875 C 1110.347656 480.101562 1110.488281 481.71875 1111.503906 482.804688 C 1126.851562 507.351562 1125.882812 547.5 1098.304688 571.078125 C 1088.988281 579.398438 1076.902344 584.042969 1064.324219 584.136719 C 1037.742188 584.296875 1011.136719 584.136719 984.507812 584.136719 C 983.835938 584.207031 983.214844 584.136719 982.449219 584.113281 Z M 982.472656 584.089844 " fill-opacity="1" fill-rule="nonzero"></path><path fill="#000000" d="M 1169.039062 174.214844 L 1169.039062 124.035156 C 1169.523438 123.851562 1170.058594 123.734375 1170.566406 123.664062 C 1189.105469 123.734375 1207.640625 123.433594 1226.179688 124.035156 C 1251.863281 124.84375 1273.589844 134.96875 1291.828125 152.648438 C 1307.894531 168.226562 1318.042969 186.835938 1321.417969 208.910156 C 1331.03125 272.101562 1284.777344 316.640625 1240.210938 324.429688 C 1234.410156 325.472656 1228.539062 326.050781 1222.644531 326.164062 C 1205.492188 326.394531 1188.363281 326.234375 1171.210938 326.234375 C 1170.566406 326.234375 1169.917969 326.234375 1169.109375 326.140625 L 1169.109375 196.289062 L 1219.941406 196.289062 L 1219.941406 272.5625 C 1219.941406 275.9375 1219.941406 275.847656 1223.40625 275.707031 C 1248.234375 274.550781 1266.378906 254.789062 1270.425781 236.183594 C 1276.875 206.945312 1256.601562 178.167969 1226.597656 174.492188 C 1223.984375 174.238281 1221.351562 174.144531 1218.738281 174.214844 Z M 1169.039062 174.214844 " fill-opacity="1" fill-rule="nonzero"></path><path fill="#010101" d="M 792.464844 584.042969 C 804.113281 540.613281 815.765625 497.273438 827.367188 454.074219 L 881.089844 454.074219 C 874.941406 480.542969 868.882812 506.867188 862.667969 533.472656 L 904.113281 533.472656 C 891.285156 482.804688 878.5 432.394531 865.742188 381.683594 C 866.851562 381.566406 867.660156 381.453125 868.445312 381.453125 L 914.238281 381.453125 C 915.761719 381.175781 917.21875 382.167969 917.519531 383.671875 C 917.519531 383.71875 917.519531 383.785156 917.542969 383.832031 C 936.613281 449.800781 955.660156 515.765625 974.707031 581.734375 C 974.914062 582.425781 975.03125 583.167969 975.214844 584.019531 L 792.464844 584.019531 Z M 792.464844 584.042969 " fill-opacity="1" fill-rule="nonzero"></path><path fill="#000000" d="M 1007.808594 326.117188 L 1007.808594 196.382812 L 1146.640625 196.382812 L 1146.640625 246.605469 L 1062.175781 246.605469 C 1059.242188 246.605469 1058.546875 247.4375 1058.640625 250.191406 C 1058.824219 257.585938 1058.640625 264.980469 1058.640625 272.378906 C 1058.640625 276.03125 1058.640625 276.054688 1062.269531 276.054688 L 1146.6875 276.054688 L 1146.6875 326.28125 L 1007.832031 326.140625 Z M 1007.808594 326.117188 " fill-opacity="1" fill-rule="nonzero"></path><path fill="#010101" d="M 508.699219 381.566406 L 559.808594 381.566406 L 559.808594 389.84375 C 559.414062 398.441406 560.453125 407.039062 562.882812 415.292969 C 567.410156 429.507812 575.917969 441.15625 586.667969 451.347656 C 598.527344 462.628906 610.683594 473.605469 622.472656 484.980469 C 638.675781 500.648438 643.625 519.835938 638.078125 541.191406 C 632.527344 562.546875 618.265625 575.929688 597.070312 582.101562 C 592.585938 583.375 587.9375 584.019531 583.246094 584.042969 C 556.664062 584.230469 530.058594 584.136719 503.429688 584.136719 C 502.875 584.136719 502.320312 584.136719 501.601562 584.042969 L 501.601562 533.65625 L 580.84375 533.65625 C 584.332031 533.65625 587.105469 532.246094 588.378906 528.917969 C 589.648438 525.589844 588.585938 522.863281 586.019531 520.433594 C 575.433594 510.496094 564.847656 500.558594 554.375 490.527344 C 539.8125 476.589844 527.539062 460.988281 519.078125 442.636719 C 512.28125 427.980469 508.746094 412.054688 508.722656 395.921875 C 508.628906 391.230469 508.722656 386.515625 508.722656 381.546875 Z M 508.699219 381.566406 " fill-opacity="1" fill-rule="nonzero"></path><path fill="#010101" d="M 1128.03125 584.183594 L 1128.03125 533.679688 L 1208.011719 533.679688 C 1212.125 533.609375 1215.410156 530.257812 1215.339844 526.191406 C 1215.316406 524.109375 1214.390625 522.144531 1212.796875 520.78125 C 1203.25 511.789062 1193.75 502.753906 1184.15625 493.785156 C 1168.601562 479.246094 1155.214844 463.136719 1146.085938 443.765625 C 1138.804688 428.511719 1135.082031 411.847656 1135.175781 394.972656 L 1135.175781 381.613281 L 1186.285156 381.613281 L 1186.285156 388.847656 C 1185.890625 401.097656 1187.371094 412.957031 1192.800781 424.191406 C 1197.910156 434.5 1204.890625 443.8125 1213.398438 451.625 C 1225.164062 462.742188 1237.160156 473.652344 1248.8125 484.863281 C 1265.128906 500.605469 1270.101562 519.902344 1264.460938 541.308594 C 1258.914062 562.410156 1244.511719 576 1223.382812 582.21875 C 1218.785156 583.488281 1214.046875 584.136719 1209.261719 584.136719 C 1182.933594 584.320312 1156.625 584.230469 1130.320312 584.230469 L 1128.03125 584.160156 Z M 1128.03125 584.183594 " fill-opacity="1" fill-rule="nonzero"></path><path fill="#010101" d="M 785.414062 533.679688 L 785.414062 584.019531 L 646.488281 584.019531 L 646.488281 381.636719 L 697.414062 381.636719 L 697.414062 529.890625 C 697.414062 533.679688 697.414062 533.703125 701.160156 533.703125 L 785.414062 533.703125 Z M 785.414062 533.679688 " fill-opacity="1" fill-rule="nonzero"></path><path fill="#010101" d="M 234.917969 124.21875 L 420.976562 124.21875 C 423.980469 124.21875 424.695312 125.261719 424.695312 128.035156 L 424.695312 454.421875 C 424.695312 463.367188 422.292969 471.941406 419.65625 480.449219 C 416.675781 489.996094 412.285156 499.078125 406.644531 507.375 C 399.410156 517.984375 390.324219 527.230469 379.804688 534.695312 C 362.679688 546.96875 345.410156 559.082031 328.191406 571.171875 C 314.734375 580.667969 301.214844 590.101562 287.808594 599.621094 C 276.550781 607.597656 265.40625 615.664062 254.195312 623.683594 C 248.601562 627.683594 242.941406 631.636719 237.367188 635.65625 C 235.933594 636.835938 233.855469 636.835938 232.421875 635.65625 L 200.800781 613.351562 L 160.972656 585.175781 C 151.078125 578.128906 141.117188 571.03125 131.175781 564.027344 C 118.371094 554.921875 105.5625 545.882812 92.734375 536.914062 C 78.542969 527.277344 66.777344 514.5625 58.363281 499.75 C 53.023438 490.109375 49.164062 479.730469 46.941406 468.960938 C 45.695312 463.113281 45.023438 457.171875 44.976562 451.210938 C 44.886719 343.683594 44.886719 236.183594 44.976562 128.65625 C 44.976562 124.289062 44.976562 124.289062 49.277344 124.289062 Z M 235.058594 135.335938 L 58.964844 135.335938 C 56.652344 135.335938 55.65625 135.890625 55.65625 138.597656 C 55.726562 240.945312 55.726562 343.316406 55.65625 445.664062 C 55.425781 462.652344 59.609375 479.429688 67.839844 494.363281 C 73.917969 505.597656 82.378906 515.417969 92.640625 523.140625 C 100.179688 528.734375 107.828125 534.164062 115.480469 539.621094 C 128.75 549.050781 142.015625 558.457031 155.308594 567.839844 C 170.125 578.265625 184.851562 588.621094 199.597656 599.046875 C 210.695312 606.902344 221.648438 614.878906 232.792969 622.667969 C 234.015625 623.359375 235.496094 623.429688 236.769531 622.851562 C 247.214844 615.640625 257.527344 608.222656 267.859375 600.941406 C 277.613281 594.007812 287.320312 586.980469 297.074219 580.070312 C 311.894531 569.574219 326.757812 559.105469 341.644531 548.679688 C 349.871094 542.925781 357.800781 536.9375 366.074219 531.34375 C 379.019531 522.585938 390.785156 512.621094 399.015625 499.238281 C 408.214844 484.445312 413.832031 468.523438 413.925781 451.023438 C 413.996094 347.382812 413.996094 243.742188 413.925781 140.097656 C 413.925781 137 412.316406 135.453125 409.09375 135.453125 L 235.058594 135.359375 Z M 235.058594 135.335938 " fill-opacity="1" fill-rule="nonzero"></path><path fill="#000000" d="M 994.886719 275.914062 L 994.886719 326.304688 L 991.488281 326.304688 C 966.386719 326.304688 941.304688 326.050781 916.269531 326.304688 C 901.546875 326.417969 888.09375 322.953125 876.28125 314.191406 C 858.296875 300.878906 848.726562 283.195312 848.726562 260.800781 L 848.726562 196.402344 L 899.722656 196.402344 L 899.722656 259.644531 C 899.722656 269.929688 905.871094 275.960938 916.339844 275.984375 L 994.886719 275.984375 Z M 994.886719 275.914062 " fill-opacity="1" fill-rule="nonzero"></path><path fill="#000000" d="M 783.101562 123.917969 L 833.75 123.917969 L 833.75 326.140625 L 783.101562 326.140625 Z M 783.101562 123.917969 " fill-opacity="1" fill-rule="nonzero"></path><path fill="#000000" d="M 848.726562 174.03125 L 848.726562 123.851562 C 849.792969 123.851562 850.785156 123.6875 851.800781 123.6875 L 991.90625 123.6875 C 994.332031 123.6875 995.09375 124.242188 995.070312 126.714844 C 994.957031 141.578125 994.957031 156.464844 995.070312 171.324219 C 995.070312 173.613281 994.449219 174.351562 992.089844 174.351562 C 945.210938 174.285156 898.3125 174.285156 851.410156 174.351562 C 850.554688 174.191406 849.746094 174.097656 848.703125 174.03125 Z M 848.726562 174.03125 " fill-opacity="1" fill-rule="nonzero"></path><path fill="#000000" d="M 1007.808594 123.851562 L 1146.640625 123.851562 L 1146.640625 173.984375 L 1007.808594 173.984375 Z M 1007.808594 123.851562 " fill-opacity="1" fill-rule="nonzero"></path><path fill="#010101" d="M 391.433594 194.578125 C 391.527344 195.988281 391.640625 197.144531 391.640625 198.300781 C 391.851562 225.664062 391.964844 253.03125 392.289062 280.398438 C 392.660156 283.058594 391.15625 285.625 388.636719 286.59375 C 372.988281 294.175781 357.339844 301.824219 341.757812 309.523438 C 330.710938 314.976562 319.707031 320.523438 308.65625 325.957031 C 295.179688 332.566406 281.65625 339.039062 268.183594 345.648438 C 260.808594 349.277344 253.503906 353.070312 245.828125 356.953125 C 245.644531 356.144531 245.527344 355.3125 245.460938 354.457031 C 245.367188 343.453125 245.367188 332.429688 245.226562 321.425781 C 245.019531 319.414062 246.222656 317.542969 248.117188 316.851562 C 278.605469 301.894531 309.074219 286.871094 339.539062 271.941406 C 342.476562 270.507812 343.90625 268.679688 343.492188 265.445312 C 343.375 263.664062 343.351562 261.886719 343.398438 260.105469 C 343.398438 257.261719 342.453125 256.683594 339.933594 257.933594 C 336.1875 259.78125 332.441406 261.699219 328.699219 263.574219 C 318.898438 268.449219 309.074219 273.304688 299.25 278.132812 C 288.984375 283.242188 278.746094 288.398438 268.503906 293.503906 L 247.609375 303.789062 C 245.183594 304.992188 245.183594 303.375 245.183594 301.710938 C 245.183594 287.820312 245.089844 273.925781 244.925781 260.058594 C 244.765625 246.191406 244.488281 232.089844 244.09375 218.109375 C 243.792969 215.613281 245.273438 213.230469 247.679688 212.328125 C 282.398438 195.292969 317.070312 178.214844 351.746094 161.085938 L 387.875 143.3125 C 388.753906 142.894531 389.675781 142.570312 391.039062 142.015625 C 391.179688 143.519531 391.386719 144.652344 391.410156 145.785156 C 391.503906 156.09375 391.410156 166.402344 391.6875 176.6875 C 391.988281 179.160156 390.507812 181.519531 388.105469 182.351562 C 375.578125 188.476562 363.09375 194.671875 350.542969 200.773438 C 339.632812 206.089844 328.675781 211.359375 317.789062 216.652344 C 310.621094 220.140625 303.433594 223.5625 296.382812 227.308594 C 294.996094 228.324219 294.070312 229.828125 293.839844 231.515625 C 293.65625 233.988281 293.65625 236.460938 293.839844 238.933594 C 293.839844 241.269531 294.789062 241.753906 296.84375 240.734375 L 332.121094 223.238281 C 351.167969 213.832031 370.214844 204.449219 389.238281 195.039062 C 389.976562 194.808594 390.738281 194.648438 391.527344 194.554688 Z M 391.433594 194.578125 " fill-opacity="1" fill-rule="nonzero"></path><path fill="#010101" d="M 77.570312 286.316406 L 77.570312 146.457031 L 93.796875 153.945312 C 103.066406 158.242188 112.289062 162.636719 121.628906 166.773438 C 124.449219 167.652344 126.230469 170.378906 125.882812 173.265625 C 125.699219 204.886719 125.789062 236.507812 125.722656 268.148438 C 125.558594 270.34375 126.898438 272.402344 129.027344 273.117188 C 143.21875 279.613281 157.367188 286.246094 171.535156 292.8125 C 174.148438 294.011719 174.515625 293.667969 174.515625 289.945312 L 174.515625 191.757812 C 175.8125 192.175781 176.550781 192.359375 177.222656 192.660156 C 191.507812 199.246094 205.769531 205.835938 220.054688 212.421875 C 221.789062 213.023438 222.875 214.710938 222.667969 216.511719 C 222.597656 261.03125 222.597656 305.546875 222.667969 350.085938 C 222.667969 350.941406 222.574219 351.820312 222.503906 353.4375 L 77.617188 286.316406 Z M 77.570312 286.316406 " fill-opacity="1" fill-rule="nonzero"></path><path fill="#c54554" d="M 246.476562 486.113281 L 246.476562 592.367188 C 246.730469 594.863281 245.4375 597.265625 243.21875 598.445312 C 240.90625 599.832031 238.734375 601.402344 236.675781 603.136719 C 235.589844 604.292969 233.761719 604.339844 232.605469 603.273438 C 232.5625 603.230469 232.515625 603.183594 232.46875 603.136719 C 229.71875 601.011719 226.78125 599.136719 224.101562 596.964844 C 223.222656 596.085938 222.667969 594.953125 222.460938 593.730469 C 222.320312 592.367188 222.320312 590.976562 222.460938 589.589844 L 222.460938 379.441406 C 222.460938 375.8125 223.382812 374.957031 226.367188 376.851562 C 231.984375 380.457031 237.066406 380.320312 242.683594 376.761719 C 245.460938 374.980469 246.523438 375.90625 246.523438 379.234375 L 246.453125 486.136719 Z M 246.476562 486.113281 " fill-opacity="1" fill-rule="nonzero"></path><path fill="#c54554" d="M 293.46875 353.96875 L 293.46875 361.273438 C 293.46875 425.945312 293.46875 490.617188 293.65625 555.3125 C 293.957031 559.589844 291.757812 563.679688 287.992188 565.785156 C 282.746094 569.296875 277.726562 573.113281 272.574219 576.761719 C 271.8125 577.179688 271.023438 577.527344 270.191406 577.78125 L 270.191406 367.628906 C 269.890625 366.058594 270.792969 364.511719 272.320312 363.980469 C 278.515625 361.296875 284.59375 358.339844 290.71875 355.519531 C 291.527344 355.058594 292.335938 354.570312 293.492188 353.96875 Z M 293.46875 353.96875 " fill-opacity="1" fill-rule="nonzero"></path><path fill="#c54554" d="M 175.511719 353.96875 C 180.550781 356.28125 185.21875 358.453125 189.890625 360.628906 C 192.292969 361.644531 194.652344 362.824219 196.894531 364.140625 C 197.910156 364.878906 198.558594 366.035156 198.695312 367.285156 C 198.789062 413.070312 198.789062 458.859375 198.695312 504.625 C 198.695312 528.457031 198.789062 552.285156 198.835938 576.117188 C 198.765625 576.625 198.628906 577.132812 198.441406 577.617188 C 197.726562 577.296875 197.03125 576.902344 196.363281 576.507812 C 190.074219 571.933594 183.742188 567.425781 177.59375 562.6875 C 176.367188 561.648438 175.605469 560.167969 175.488281 558.574219 C 175.417969 492.027344 175.417969 425.484375 175.488281 358.917969 L 175.488281 353.945312 Z M 175.511719 353.96875 " fill-opacity="1" fill-rule="nonzero"></path><path fill="#c54554" d="M 340.347656 332.519531 C 340.765625 333.5625 341.066406 334.648438 341.203125 335.757812 L 341.203125 524.828125 C 341.15625 526.375 340.464844 527.808594 339.332031 528.847656 C 332.789062 533.726562 326.179688 538.394531 319.542969 543.085938 C 319.222656 543.25 318.851562 543.363281 318.503906 543.410156 C 318.386719 542.949219 318.296875 542.484375 318.25 542.023438 C 318.25 477.722656 318.367188 413.394531 318.109375 349.09375 C 318.109375 343.777344 319.9375 341.304688 324.445312 339.523438 C 329.554688 337.511719 334.546875 335.085938 340.324219 332.519531 Z M 340.347656 332.519531 " fill-opacity="1" fill-rule="nonzero"></path><path fill="#c54554" d="M 150.523438 543.503906 C 147.425781 541.351562 144.929688 539.621094 142.457031 537.863281 C 138.363281 534.925781 134.179688 532.0625 130.25 528.917969 C 128.886719 527.855469 128.007812 526.304688 127.800781 524.617188 C 127.6875 462.8125 127.6875 400.984375 127.800781 339.15625 C 127.707031 337.976562 127.707031 336.773438 127.800781 335.59375 C 128.054688 334.460938 128.378906 333.351562 128.773438 332.265625 C 135.542969 335.386719 141.832031 338.277344 148.234375 341.210938 C 149.945312 341.859375 151.007812 343.570312 150.824219 345.371094 C 150.730469 410.277344 150.730469 475.15625 150.824219 540.058594 C 150.683594 540.914062 150.617188 541.769531 150.523438 543.527344 Z M 150.523438 543.503906 " fill-opacity="1" fill-rule="nonzero"></path><path fill="#c54554" d="M 110.71875 515.304688 C 96.734375 507.539062 86.769531 496.675781 82.75 481.488281 C 80.921875 474.507812 79.953125 467.34375 79.90625 460.132812 C 79.652344 411.175781 79.765625 362.199219 79.765625 313.242188 C 79.765625 309.871094 80.042969 309.683594 83.027344 311.023438 C 89.082031 313.777344 95.117188 316.59375 101.195312 319.253906 C 103.089844 319.945312 104.269531 321.886719 103.96875 323.875 L 103.96875 492.121094 C 104.085938 499.101562 105.933594 505.917969 109.285156 512.046875 C 109.816406 513.109375 110.28125 514.195312 110.695312 515.28125 Z M 110.71875 515.304688 " fill-opacity="1" fill-rule="nonzero"></path><path fill="#c54554" d="M 358.148438 515.304688 C 359.1875 513.039062 360.179688 510.773438 361.222656 508.53125 C 363.949219 502.359375 365.265625 495.679688 365.082031 488.953125 C 364.988281 455.140625 365.082031 421.277344 365.082031 387.4375 C 365.082031 366.359375 365.082031 345.09375 364.988281 323.921875 C 364.804688 321.820312 366.074219 319.832031 368.085938 319.136719 C 374.398438 316.273438 380.683594 313.359375 386.972656 310.449219 C 388.335938 309.824219 389.121094 310.125 389.167969 311.671875 L 389.167969 464.246094 C 389.167969 467.089844 388.035156 469.933594 387.527344 472.773438 C 387.320312 475.570312 386.949219 478.34375 386.441406 481.074219 C 383.019531 493.484375 375.34375 504.347656 364.757812 511.789062 C 362.863281 513.179688 360.945312 514.519531 359.003906 515.859375 L 358.125 515.328125 Z M 358.148438 515.304688 " fill-opacity="1" fill-rule="nonzero"></path><g fill="#231f20" fill-opacity="1"><g transform="translate(446.448559, 637.367629)"><g><path d="M 0.53125 0 L 0.53125 -1.109375 L 3.125 -1.5 L 3.125 -18.703125 L 0.53125 -19.109375 L 0.53125 -20.21875 L 10.46875 -20.21875 L 10.46875 -19.109375 L 7.875 -18.703125 L 7.875 -11.234375 L 16.125 -11.234375 L 16.125 -18.703125 L 13.53125 -19.109375 L 13.53125 -20.21875 L 23.5 -20.21875 L 23.5 -19.109375 L 20.890625 -18.703125 L 20.890625 -1.5 L 23.5 -1.109375 L 23.5 0 L 13.53125 0 L 13.53125 -1.109375 L 16.125 -1.5 L 16.125 -9.578125 L 7.875 -9.578125 L 7.875 -1.5 L 10.46875 -1.109375 L 10.46875 0 Z M 0.53125 0 "></path></g></g></g><g fill="#231f20" fill-opacity="1"><g transform="translate(497.941716, 637.367629)"><g><path d="M 6.515625 -10.125 C 6.515625 -6.925781 6.953125 -4.640625 7.828125 -3.265625 C 8.710938 -1.890625 10.109375 -1.203125 12.015625 -1.203125 C 13.910156 -1.203125 15.296875 -1.890625 16.171875 -3.265625 C 17.054688 -4.648438 17.5 -6.9375 17.5 -10.125 C 17.5 -13.3125 17.054688 -15.570312 16.171875 -16.90625 C 15.296875 -18.25 13.910156 -18.921875 12.015625 -18.921875 C 10.109375 -18.921875 8.710938 -18.25 7.828125 -16.90625 C 6.953125 -15.570312 6.515625 -13.3125 6.515625 -10.125 Z M 1.5 -10.125 C 1.5 -17 5.003906 -20.4375 12.015625 -20.4375 C 15.472656 -20.4375 18.085938 -19.566406 19.859375 -17.828125 C 21.628906 -16.085938 22.515625 -13.519531 22.515625 -10.125 C 22.515625 -6.695312 21.617188 -4.101562 19.828125 -2.34375 C 18.035156 -0.582031 15.429688 0.296875 12.015625 0.296875 C 8.609375 0.296875 6.003906 -0.578125 4.203125 -2.328125 C 2.398438 -4.085938 1.5 -6.6875 1.5 -10.125 Z M 1.5 -10.125 "></path></g></g></g><g fill="#231f20" fill-opacity="1"><g transform="translate(549.434872, 637.367629)"><g><path d="M 12.640625 -1.84375 C 14.140625 -1.84375 15.300781 -2.265625 16.125 -3.109375 C 16.957031 -3.953125 17.375 -5.191406 17.375 -6.828125 L 17.375 -18.71875 L 14.65625 -19.109375 L 14.65625 -20.21875 L 21.53125 -20.21875 L 21.53125 -19.109375 L 19.234375 -18.71875 L 19.234375 -6.953125 C 19.234375 -4.617188 18.5625 -2.828125 17.21875 -1.578125 C 15.875 -0.335938 13.945312 0.28125 11.4375 0.28125 C 8.738281 0.28125 6.664062 -0.347656 5.21875 -1.609375 C 3.78125 -2.867188 3.0625 -4.691406 3.0625 -7.078125 L 3.0625 -18.71875 L 0.765625 -19.109375 L 0.765625 -20.21875 L 10.40625 -20.21875 L 10.40625 -19.109375 L 7.8125 -18.71875 L 7.8125 -6.859375 C 7.8125 -5.242188 8.21875 -4.003906 9.03125 -3.140625 C 9.851562 -2.273438 11.054688 -1.84375 12.640625 -1.84375 Z M 12.640625 -1.84375 "></path></g></g></g><g fill="#231f20" fill-opacity="1"><g transform="translate(599.20995, 637.367629)"><g><path d="M 1.640625 -6.203125 L 2.96875 -6.203125 L 3.640625 -2.953125 C 4.066406 -2.460938 4.707031 -2.050781 5.5625 -1.71875 C 6.414062 -1.382812 7.300781 -1.21875 8.21875 -1.21875 C 11.101562 -1.21875 12.546875 -2.40625 12.546875 -4.78125 C 12.546875 -5.519531 12.269531 -6.144531 11.71875 -6.65625 C 11.175781 -7.175781 10.316406 -7.632812 9.140625 -8.03125 C 7.410156 -8.601562 6.164062 -9.066406 5.40625 -9.421875 C 4.644531 -9.785156 4.003906 -10.207031 3.484375 -10.6875 C 2.960938 -11.164062 2.546875 -11.75 2.234375 -12.4375 C 1.921875 -13.132812 1.765625 -13.984375 1.765625 -14.984375 C 1.765625 -16.765625 2.367188 -18.117188 3.578125 -19.046875 C 4.785156 -19.972656 6.554688 -20.4375 8.890625 -20.4375 C 10.578125 -20.4375 12.445312 -20.222656 14.5 -19.796875 L 14.5 -14.984375 L 13.15625 -14.984375 L 12.484375 -17.765625 C 11.453125 -18.503906 10.253906 -18.875 8.890625 -18.875 C 7.660156 -18.875 6.710938 -18.644531 6.046875 -18.1875 C 5.378906 -17.726562 5.046875 -17.023438 5.046875 -16.078125 C 5.046875 -15.410156 5.320312 -14.835938 5.875 -14.359375 C 6.425781 -13.878906 7.289062 -13.453125 8.46875 -13.078125 C 10.769531 -12.328125 12.347656 -11.671875 13.203125 -11.109375 C 14.066406 -10.554688 14.722656 -9.867188 15.171875 -9.046875 C 15.628906 -8.222656 15.859375 -7.253906 15.859375 -6.140625 C 15.859375 -1.847656 13.332031 0.296875 8.28125 0.296875 C 7.125 0.296875 5.941406 0.195312 4.734375 0 C 3.535156 -0.1875 2.503906 -0.441406 1.640625 -0.765625 Z M 1.640625 -6.203125 "></path></g></g></g><g fill="#231f20" fill-opacity="1"><g transform="translate(643.860934, 637.367629)"><g><path d="M 0.53125 -1.09375 L 3.125 -1.5 L 3.125 -18.71875 L 0.53125 -19.109375 L 0.53125 -20.21875 L 17.75 -20.21875 L 17.75 -15.078125 L 16.375 -15.078125 L 15.890625 -18.34375 C 14.765625 -18.488281 13.132812 -18.5625 11 -18.5625 L 7.875 -18.5625 L 7.875 -11.140625 L 13.15625 -11.140625 L 13.625 -13.375 L 14.96875 -13.375 L 14.96875 -7.15625 L 13.625 -7.15625 L 13.15625 -9.453125 L 7.875 -9.453125 L 7.875 -1.65625 L 11.6875 -1.65625 C 14.28125 -1.65625 15.976562 -1.738281 16.78125 -1.90625 L 17.640625 -5.640625 L 19.015625 -5.640625 L 18.71875 0 L 0.53125 0 Z M 0.53125 -1.09375 "></path></g></g></g><g fill="#231f20" fill-opacity="1"><g transform="translate(691.932993, 637.367629)"><g></g></g></g><g fill="#231f20" fill-opacity="1"><g transform="translate(727.134555, 637.367629)"><g><path d="M 1.640625 -6.203125 L 2.96875 -6.203125 L 3.640625 -2.953125 C 4.066406 -2.460938 4.707031 -2.050781 5.5625 -1.71875 C 6.414062 -1.382812 7.300781 -1.21875 8.21875 -1.21875 C 11.101562 -1.21875 12.546875 -2.40625 12.546875 -4.78125 C 12.546875 -5.519531 12.269531 -6.144531 11.71875 -6.65625 C 11.175781 -7.175781 10.316406 -7.632812 9.140625 -8.03125 C 7.410156 -8.601562 6.164062 -9.066406 5.40625 -9.421875 C 4.644531 -9.785156 4.003906 -10.207031 3.484375 -10.6875 C 2.960938 -11.164062 2.546875 -11.75 2.234375 -12.4375 C 1.921875 -13.132812 1.765625 -13.984375 1.765625 -14.984375 C 1.765625 -16.765625 2.367188 -18.117188 3.578125 -19.046875 C 4.785156 -19.972656 6.554688 -20.4375 8.890625 -20.4375 C 10.578125 -20.4375 12.445312 -20.222656 14.5 -19.796875 L 14.5 -14.984375 L 13.15625 -14.984375 L 12.484375 -17.765625 C 11.453125 -18.503906 10.253906 -18.875 8.890625 -18.875 C 7.660156 -18.875 6.710938 -18.644531 6.046875 -18.1875 C 5.378906 -17.726562 5.046875 -17.023438 5.046875 -16.078125 C 5.046875 -15.410156 5.320312 -14.835938 5.875 -14.359375 C 6.425781 -13.878906 7.289062 -13.453125 8.46875 -13.078125 C 10.769531 -12.328125 12.347656 -11.671875 13.203125 -11.109375 C 14.066406 -10.554688 14.722656 -9.867188 15.171875 -9.046875 C 15.628906 -8.222656 15.859375 -7.253906 15.859375 -6.140625 C 15.859375 -1.847656 13.332031 0.296875 8.28125 0.296875 C 7.125 0.296875 5.941406 0.195312 4.734375 0 C 3.535156 -0.1875 2.503906 -0.441406 1.640625 -0.765625 Z M 1.640625 -6.203125 "></path></g></g></g><g fill="#231f20" fill-opacity="1"><g transform="translate(771.785538, 637.367629)"><g><path d="M 10.984375 -19.109375 L 7.875 -18.71875 L 7.875 -1.59375 L 11.984375 -1.59375 C 14.128906 -1.59375 15.703125 -1.695312 16.703125 -1.90625 L 17.9375 -6.109375 L 19.296875 -6.109375 L 18.71875 0 L 0.53125 0 L 0.53125 -1.09375 L 3.125 -1.5 L 3.125 -18.71875 L 0.546875 -19.109375 L 0.546875 -20.21875 L 10.984375 -20.21875 Z M 10.984375 -19.109375 "></path></g></g></g><g fill="#231f20" fill-opacity="1"><g transform="translate(819.85762, 637.367629)"><g><path d="M 6.453125 -1.09375 L 6.453125 0 L 0.296875 0 L 0.296875 -1.09375 L 1.8125 -1.5 L 9 -20.375 L 13.375 -20.375 L 20.53125 -1.5 L 22.078125 -1.09375 L 22.078125 0 L 13.078125 0 L 13.078125 -1.09375 L 15.40625 -1.5 L 13.484375 -6.734375 L 5.71875 -6.734375 L 3.859375 -1.5 Z M 9.65625 -17.34375 L 6.328125 -8.390625 L 12.90625 -8.390625 Z M 9.65625 -17.34375 "></path></g></g></g><g fill="#231f20" fill-opacity="1"><g transform="translate(869.632721, 637.367629)"><g><path d="M 13.234375 -15.21875 C 13.234375 -16.394531 12.976562 -17.242188 12.46875 -17.765625 C 11.96875 -18.296875 11.132812 -18.5625 9.96875 -18.5625 L 7.875 -18.5625 L 7.875 -11.515625 L 10.078125 -11.515625 C 11.160156 -11.515625 11.957031 -11.796875 12.46875 -12.359375 C 12.976562 -12.921875 13.234375 -13.875 13.234375 -15.21875 Z M 14.765625 -5.890625 C 14.765625 -7.234375 14.425781 -8.226562 13.75 -8.875 C 13.082031 -9.53125 11.992188 -9.859375 10.484375 -9.859375 L 7.875 -9.859375 L 7.875 -1.65625 C 9.320312 -1.59375 10.460938 -1.5625 11.296875 -1.5625 C 12.472656 -1.5625 13.34375 -1.914062 13.90625 -2.625 C 14.476562 -3.34375 14.765625 -4.429688 14.765625 -5.890625 Z M 0.515625 0 L 0.515625 -1.09375 L 3.125 -1.5 L 3.125 -18.71875 L 0.515625 -19.109375 L 0.515625 -20.21875 L 10.328125 -20.21875 C 13.015625 -20.21875 14.992188 -19.859375 16.265625 -19.140625 C 17.546875 -18.421875 18.1875 -17.257812 18.1875 -15.65625 C 18.1875 -14.445312 17.804688 -13.40625 17.046875 -12.53125 C 16.296875 -11.65625 15.285156 -11.082031 14.015625 -10.8125 C 15.898438 -10.613281 17.320312 -10.097656 18.28125 -9.265625 C 19.25 -8.441406 19.734375 -7.316406 19.734375 -5.890625 C 19.734375 -3.929688 19.007812 -2.441406 17.5625 -1.421875 C 16.113281 -0.410156 14.039062 0.09375 11.34375 0.09375 L 4.46875 0 Z M 0.515625 0 "></path></g></g></g><g fill="#231f20" fill-opacity="1"><g transform="translate(917.70478, 637.367629)"><g></g></g></g><g fill="#231f20" fill-opacity="1"><g transform="translate(952.906342, 637.367629)"><g><path d="M 0.53125 -1.09375 L 3.125 -1.5 L 3.125 -18.71875 L 0.53125 -19.109375 L 0.53125 -20.21875 L 17.75 -20.21875 L 17.75 -15.078125 L 16.375 -15.078125 L 15.890625 -18.34375 C 14.765625 -18.488281 13.132812 -18.5625 11 -18.5625 L 7.875 -18.5625 L 7.875 -11.140625 L 13.15625 -11.140625 L 13.625 -13.375 L 14.96875 -13.375 L 14.96875 -7.15625 L 13.625 -7.15625 L 13.15625 -9.453125 L 7.875 -9.453125 L 7.875 -1.65625 L 11.6875 -1.65625 C 14.28125 -1.65625 15.976562 -1.738281 16.78125 -1.90625 L 17.640625 -5.640625 L 19.015625 -5.640625 L 18.71875 0 L 0.53125 0 Z M 0.53125 -1.09375 "></path></g></g></g><g fill="#231f20" fill-opacity="1"><g transform="translate(1000.978401, 637.367629)"><g><path d="M 4.96875 -1.5 L 7.484375 -1.09375 L 7.484375 0 L 0.578125 0 L 0.578125 -1.09375 L 2.796875 -1.5 L 9.296875 -9.765625 L 3.515625 -18.71875 L 1.234375 -19.109375 L 1.234375 -20.21875 L 11.078125 -20.21875 L 11.078125 -19.109375 L 8.515625 -18.71875 L 12.046875 -13.265625 L 16.34375 -18.71875 L 13.84375 -19.109375 L 13.84375 -20.21875 L 20.765625 -20.21875 L 20.765625 -19.109375 L 18.53125 -18.71875 L 13.03125 -11.75 L 19.640625 -1.5 L 21.9375 -1.09375 L 21.9375 0 L 12.09375 0 L 12.09375 -1.09375 L 14.65625 -1.5 L 10.28125 -8.25 Z M 4.96875 -1.5 "></path></g></g></g><g fill="#231f20" fill-opacity="1"><g transform="translate(1050.753456, 637.367629)"><g><path d="M 13.125 -14.234375 C 13.125 -15.835938 12.828125 -16.957031 12.234375 -17.59375 C 11.640625 -18.238281 10.585938 -18.5625 9.078125 -18.5625 L 7.890625 -18.5625 L 7.890625 -9.59375 L 9.140625 -9.59375 C 10.535156 -9.59375 11.546875 -9.941406 12.171875 -10.640625 C 12.804688 -11.347656 13.125 -12.546875 13.125 -14.234375 Z M 7.890625 -7.9375 L 7.890625 -1.5 L 11.25 -1.09375 L 11.25 0 L 0.71875 0 L 0.71875 -1.09375 L 3.125 -1.5 L 3.125 -18.71875 L 0.53125 -19.109375 L 0.53125 -20.21875 L 9.4375 -20.21875 C 12.300781 -20.21875 14.441406 -19.738281 15.859375 -18.78125 C 17.273438 -17.820312 17.984375 -16.316406 17.984375 -14.265625 C 17.984375 -10.046875 15.519531 -7.9375 10.59375 -7.9375 Z M 7.890625 -7.9375 "></path></g></g></g><g fill="#231f20" fill-opacity="1"><g transform="translate(1097.0924, 637.367629)"><g><path d="M 0.53125 -1.09375 L 3.125 -1.5 L 3.125 -18.71875 L 0.53125 -19.109375 L 0.53125 -20.21875 L 17.75 -20.21875 L 17.75 -15.078125 L 16.375 -15.078125 L 15.890625 -18.34375 C 14.765625 -18.488281 13.132812 -18.5625 11 -18.5625 L 7.875 -18.5625 L 7.875 -11.140625 L 13.15625 -11.140625 L 13.625 -13.375 L 14.96875 -13.375 L 14.96875 -7.15625 L 13.625 -7.15625 L 13.15625 -9.453125 L 7.875 -9.453125 L 7.875 -1.65625 L 11.6875 -1.65625 C 14.28125 -1.65625 15.976562 -1.738281 16.78125 -1.90625 L 17.640625 -5.640625 L 19.015625 -5.640625 L 18.71875 0 L 0.53125 0 Z M 0.53125 -1.09375 "></path></g></g></g><g fill="#231f20" fill-opacity="1"><g transform="translate(1195.777626, 637.367629)"><g><path d="M 7.890625 -8.5625 L 7.890625 -1.5 L 10.484375 -1.09375 L 10.484375 0 L 0.71875 0 L 0.71875 -1.09375 L 3.125 -1.5 L 3.125 -18.71875 L 0.53125 -19.109375 L 0.53125 -20.21875 L 10.1875 -20.21875 C 13.164062 -20.21875 15.390625 -19.757812 16.859375 -18.84375 C 18.328125 -17.925781 19.0625 -16.5 19.0625 -14.5625 C 19.0625 -11.664062 17.703125 -9.804688 14.984375 -8.984375 L 20.375 -1.5 L 22.5625 -1.09375 L 22.5625 0 L 16.03125 0 L 10.390625 -8.5625 Z M 14.359375 -14.53125 C 14.359375 -16.039062 14.046875 -17.085938 13.421875 -17.671875 C 12.796875 -18.265625 11.65625 -18.5625 10 -18.5625 L 7.890625 -18.5625 L 7.890625 -10.21875 L 10.078125 -10.21875 C 11.617188 -10.21875 12.71875 -10.539062 13.375 -11.1875 C 14.03125 -11.832031 14.359375 -12.945312 14.359375 -14.53125 Z M 14.359375 -14.53125 "></path></g></g></g><g fill="#231f20" fill-opacity="1"><g transform="translate(1248.06321, 637.367629)"><g><path d="M 4.671875 0 L 4.671875 -1.09375 L 7.890625 -1.5 L 7.890625 -18.625 L 7.109375 -18.625 C 4.804688 -18.625 3.191406 -18.519531 2.265625 -18.3125 L 1.859375 -14.5625 L 0.484375 -14.5625 L 0.484375 -20.21875 L 20.125 -20.21875 L 20.125 -14.5625 L 18.734375 -14.5625 L 18.328125 -18.3125 C 17.492188 -18.5 15.847656 -18.59375 13.390625 -18.59375 L 12.65625 -18.59375 L 12.65625 -1.5 L 15.859375 -1.09375 L 15.859375 0 Z M 4.671875 0 "></path></g></g></g><g fill="#231f20" fill-opacity="1"><g transform="translate(1296.444108, 637.367629)"><g><path d="M 1.640625 -6.203125 L 2.96875 -6.203125 L 3.640625 -2.953125 C 4.066406 -2.460938 4.707031 -2.050781 5.5625 -1.71875 C 6.414062 -1.382812 7.300781 -1.21875 8.21875 -1.21875 C 11.101562 -1.21875 12.546875 -2.40625 12.546875 -4.78125 C 12.546875 -5.519531 12.269531 -6.144531 11.71875 -6.65625 C 11.175781 -7.175781 10.316406 -7.632812 9.140625 -8.03125 C 7.410156 -8.601562 6.164062 -9.066406 5.40625 -9.421875 C 4.644531 -9.785156 4.003906 -10.207031 3.484375 -10.6875 C 2.960938 -11.164062 2.546875 -11.75 2.234375 -12.4375 C 1.921875 -13.132812 1.765625 -13.984375 1.765625 -14.984375 C 1.765625 -16.765625 2.367188 -18.117188 3.578125 -19.046875 C 4.785156 -19.972656 6.554688 -20.4375 8.890625 -20.4375 C 10.578125 -20.4375 12.445312 -20.222656 14.5 -19.796875 L 14.5 -14.984375 L 13.15625 -14.984375 L 12.484375 -17.765625 C 11.453125 -18.503906 10.253906 -18.875 8.890625 -18.875 C 7.660156 -18.875 6.710938 -18.644531 6.046875 -18.1875 C 5.378906 -17.726562 5.046875 -17.023438 5.046875 -16.078125 C 5.046875 -15.410156 5.320312 -14.835938 5.875 -14.359375 C 6.425781 -13.878906 7.289062 -13.453125 8.46875 -13.078125 C 10.769531 -12.328125 12.347656 -11.671875 13.203125 -11.109375 C 14.066406 -10.554688 14.722656 -9.867188 15.171875 -9.046875 C 15.628906 -8.222656 15.859375 -7.253906 15.859375 -6.140625 C 15.859375 -1.847656 13.332031 0.296875 8.28125 0.296875 C 7.125 0.296875 5.941406 0.195312 4.734375 0 C 3.535156 -0.1875 2.503906 -0.441406 1.640625 -0.765625 Z M 1.640625 -6.203125 "></path></g></g></g></svg>