<svg xmlns="http://www.w3.org/2000/svg" width="196" height="31" viewBox="0 0 196 31" fill="none"><g clip-path="url(#clip0_546_4479)"><path d="M40.5998 0L32.5798 10.33L28.3598 7.59L34.2498 0H28.0198L24.2198 4.9L21.1798 8.81L17.1298 14.03L14.0098 18.05V18.06L17.1298 22.07L20.2498 18.05L25.3298 11.5L29.5398 14.24L23.4198 22.14L20.2998 26.16L23.4098 30.18L26.5398 26.15L33.6898 16.93L36.7198 13.02L46.8298 0H40.5998Z" fill="#F47521"></path><path d="M18.09 0L17.61 0.61L14.58 4.52L12.17 7.63L6.25 0H0L9.04 11.65V11.66L12.16 15.67L15.28 11.65L18.72 7.21L21.76 3.31L24.32 0H18.09Z" fill="#F47521"></path><path d="M66.65 9.29004L61.1 21.05H61.04L55.5 9.29004H58.22L61.08 15.67L63.93 9.29004H66.65Z" fill="white"></path><path d="M73.7395 9.29004H71.2695V20.86H73.7395V9.29004Z" fill="white"></path><path d="M88.8601 14.9201V20.3501C88.0501 20.7901 86.7001 21.0701 85.2601 21.0701C81.6501 21.0701 79.0001 18.7701 79.0001 15.0901C78.9801 11.5601 81.6401 9.08008 85.2701 9.08008C86.6201 9.08008 87.6601 9.30008 88.4501 9.69008V12.1001C87.6201 11.6501 86.5401 11.4001 85.3501 11.4001C82.9701 11.4001 81.5001 12.8701 81.5001 15.1101C81.5001 17.3501 82.9901 18.7401 85.3201 18.7401C85.6801 18.7401 86.0401 18.7201 86.3801 18.6601V14.9201H88.8501H88.8601Z" fill="white"></path><path d="M103.28 15.1101C103.28 12.9401 101.78 11.4001 99.7602 11.4001C97.7402 11.4001 96.2602 12.9301 96.2602 15.1101C96.2602 17.2901 97.7802 18.7501 99.7602 18.7501C101.74 18.7501 103.28 17.2801 103.28 15.1101ZM93.7402 15.0901C93.7402 11.6501 96.3402 9.08008 99.7602 9.08008C103.18 9.08008 105.78 11.6501 105.78 15.0901C105.78 18.5301 103.14 21.0701 99.7602 21.0701C96.3802 21.0701 93.7402 18.5801 93.7402 15.0901Z" fill="white"></path><path d="M119.64 20.86H116.86L113.51 15.07H114.87C116.07 15.07 116.78 14.34 116.78 13.24C116.78 12.14 116.05 11.44 114.86 11.44H113.51V20.86H111.04V9.29004H114.84C117.7 9.29004 119.28 10.89 119.28 13.25C119.28 14.77 118.59 15.97 117.06 16.57L119.64 20.87V20.86Z" fill="white"></path><path d="M135.49 9.29004V20.86H134.2V15.53H127.48V20.86H126.19V9.29004H127.48V14.29H134.2V9.29004H135.49Z" fill="white"></path><path d="M151.58 15.1101C151.58 12.3701 149.61 10.3201 147.01 10.3201C144.41 10.3201 142.44 12.3501 142.44 15.1101C142.44 17.8701 144.46 19.8301 147.01 19.8301C149.56 19.8301 151.58 17.8601 151.58 15.1101ZM141.15 15.0901C141.15 11.6201 143.72 9.08008 147.02 9.08008C150.32 9.08008 152.89 11.6101 152.89 15.0901C152.89 18.5701 150.26 21.0701 147.02 21.0701C143.78 21.0701 141.15 18.6101 141.15 15.0901Z" fill="white"></path><path d="M169.58 9.12988V20.8599H168.31V12.1699L164.06 16.7199L159.82 12.1799V20.8599H158.54V9.12988H158.57L164.06 14.9299L169.55 9.12988H169.58Z" fill="white"></path><path d="M175.95 9.29004H182.59V10.51H177.23V14.21H182.22V15.45H177.23V19.64H182.77V20.86H175.95V9.29004Z" fill="white"></path><path d="M187.771 20.3801V19.0301C188.681 19.5301 189.771 19.8301 190.961 19.8301C192.571 19.8301 193.73 19.2001 193.73 17.8401C193.73 14.7301 187.821 16.1701 187.821 12.1501C187.821 10.1501 189.56 9.08008 191.62 9.08008C192.93 9.08008 193.87 9.33008 194.51 9.71008V11.0201C193.74 10.6001 192.82 10.3201 191.62 10.3201C190.26 10.3201 189.12 10.9101 189.12 12.1201C189.12 15.0801 195.051 13.6101 195.051 17.7701C195.051 19.9801 193.31 21.0701 190.98 21.0701C189.73 21.0701 188.601 20.8001 187.771 20.3801Z" fill="white"></path></g><defs><clipPath id="clip0_546_4479"><rect width="195.04" height="30.18" fill="white"></rect></clipPath></defs></svg>